<?xml version="1.0" encoding="utf-8"?>
<!-- Generator: Adobe Illustrator 24.2.3, SVG Export Plug-In . SVG Version: 6.00 Build 0)  -->
<svg version="1.1" id="Camada_1" xmlns="http://www.w3.org/2000/svg" xmlns:xlink="http://www.w3.org/1999/xlink" x="0px" y="0px"
	 viewBox="0 0 403.5 210" style="enable-background:new 0 0 403.5 210;" xml:space="preserve">
<style type="text/css">
	.st0{fill:#E9527D;}
	.st1{fill:#FFFFFF;}
</style>
<rect x="6.9" y="23.8" class="st0" width="271.5" height="27.2"/>
<rect x="6.9" y="72.5" class="st0" width="164.7" height="27.2"/>
<g>
	<path class="st0" d="M211.6,143.1c-0.3,0-0.6,0.1-0.9,0.1c-0.6,0-1.1-0.1-1.6-0.2c-0.5-0.1-1-0.3-1.6-0.6c-2.1-0.9-3.9-2.1-5.4-3.7
		c-1.5-1.6-2.9-3.3-4.2-5c-1.3-1.7-2.7-3.1-4-4.3c-1.4-1.2-3-1.9-4.8-1.9c-1.8,0-3.5,0.5-5.2,1.4c-1.6,0.9-3.2,2.1-4.6,3.5
		c-1.4,1.4-2.6,3-3.7,4.6c-1,1.7-1.9,3.3-2.5,4.8v2.1c0,0.6,0,1.3,0,1.9c-0.1,0.7-0.2,1.3-0.5,1.8c-0.3,0.5-0.6,1-1.1,1.3
		c-0.5,0.4-1.1,0.5-1.9,0.5c-0.9,0-1.6-0.4-2.2-1.3c-0.6-0.9-0.9-1.7-0.9-2.4c0-0.7,0.2-1.4,0.5-2.1c0.3-0.7,0.5-1.4,0.5-2.1
		c0-3.6-0.1-7.1-0.4-10.6c-0.2-3.5-0.5-7-0.7-10.5c-0.3-3.5-0.5-7-0.7-10.5c-0.2-3.5-0.4-7.1-0.4-10.6c0-2.4,0.1-5.4,0.2-8.9
		c0.1-3.5,0.4-7.3,0.9-11.2c0.5-3.9,1.1-7.8,2.1-11.7c0.9-3.9,2.2-7.4,3.8-10.5c1.6-3.1,3.6-5.6,6-7.6c2.4-1.9,5.4-2.9,8.8-2.9
		c2.3,0,4.3,0.5,5.9,1.4c1.6,1,2.9,2.2,3.8,3.7c0.9,1.5,1.6,3.3,2.1,5.2c0.4,2,0.6,4,0.6,6c0,2.4-0.2,4.9-0.7,7.6
		c-0.5,2.6-1.1,5.2-1.9,7.8c-0.8,2.6-1.7,5.2-2.7,7.7s-2.1,4.8-3.2,7c-0.4,0.9-1.1,2.2-2.1,3.9c-1,1.7-2,3.5-3.1,5.4
		c-1.1,1.9-2.2,3.6-3.3,5.2c-1.1,1.6-1.9,2.6-2.6,3.1c-0.4,0.2-0.8,0.5-1.4,0.7c-0.5,0.3-1,0.4-1.4,0.4c-0.1,0-0.2-0.1-0.3-0.3
		s-0.1-0.4-0.1-0.5c0-0.4,0.2-1,0.5-1.8c0.4-0.8,0.7-1.3,0.9-1.7c0.6-0.9,1.2-1.8,1.7-2.6c0.5-0.9,1.1-1.7,1.6-2.6
		c1.6-2.7,3.1-5.4,4.4-8.1c1.3-2.7,2.5-5.5,3.6-8.2c1.3-3.6,2.5-7.1,3.4-10.8c1-3.6,1.4-7.3,1.4-11c0-1.1-0.1-2.3-0.3-3.7
		c-0.2-1.4-0.5-2.6-1-3.8c-0.5-1.2-1.2-2.1-2.1-3c-0.9-0.8-2.1-1.2-3.6-1.2c-1.9,0-3.6,0.5-5,1.6c-1.5,1.1-2.7,2.5-3.8,4.3
		c-1.1,1.8-2,3.9-2.8,6.3c-0.8,2.4-1.4,4.9-1.9,7.6c-0.5,2.6-0.9,5.3-1.2,8s-0.5,5.3-0.6,7.8c-0.1,2.5-0.2,4.7-0.3,6.8
		c0,2-0.1,3.7-0.1,5.1c0,5.5,0.1,11,0.4,16.4c0.3,5.4,0.5,10.8,0.7,16.4c1-1.2,2.1-2.4,3.2-3.5c1.2-1.1,2.4-2.1,3.8-2.9
		s2.8-1.5,4.3-2c1.5-0.5,3.1-0.7,4.8-0.7c1.8,0,3.3,0.3,4.6,0.9c1.3,0.6,2.4,1.3,3.4,2.2c1,0.9,1.9,2,2.7,3.1
		c0.8,1.2,1.6,2.3,2.5,3.5c0.8,1.2,1.7,2.3,2.7,3.4c1,1.1,2,2,3.3,2.8c0.3,0.2,0.7,0.4,1.2,0.7c0.5,0.3,0.9,0.5,1.4,0.9
		c0.5,0.3,0.9,0.6,1.2,1c0.4,0.4,0.6,0.7,0.6,1.1C212.1,142.8,211.9,143,211.6,143.1z"/>
	<path class="st0" d="M258.2,140c-0.4,0-0.8,0.1-1.1,0.1c-1.3,0-2.5-0.2-3.6-0.7c-1.1-0.5-2.2-1.1-3.2-1.9s-1.8-1.7-2.6-2.7
		c-0.8-1-1.4-2-2-3.1c-0.8,1.9-1.8,3.9-3,5.9c-1.2,2-2.6,3.8-4.2,5.4c-1.6,1.6-3.4,2.9-5.4,3.9c-2,1-4.1,1.5-6.5,1.5
		c-2.8,0-5.1-0.5-7-1.6c-1.9-1.1-3.4-2.5-4.6-4.3c-1.2-1.8-2.1-3.8-2.6-6.1c-0.5-2.3-0.8-4.6-0.8-7.1c0-1.9,0.2-4.1,0.7-6.4
		c0.5-2.3,1.1-4.7,2-7c0.9-2.3,1.9-4.6,3.2-6.8c1.3-2.2,2.7-4.1,4.3-5.8c1.6-1.7,3.5-3,5.5-4s4.2-1.5,6.5-1.5c0.9,0,1.9,0.1,3.2,0.4
		c1.3,0.3,2.5,0.7,3.7,1.3c1.2,0.6,2.3,1.3,3.1,2.1c0.9,0.8,1.3,1.7,1.3,2.8c0,0.3-0.1,0.6-0.3,1.1c-0.2,0.4-0.5,0.6-0.9,0.6
		c-0.3,0-0.7-0.2-1.1-0.6c-0.5-0.4-1.1-0.9-1.8-1.5c-0.8-0.5-1.7-1-2.7-1.5c-1-0.4-2.3-0.6-3.8-0.6c-1.8,0-3.5,0.5-5,1.4
		c-1.5,0.9-2.9,2.1-4.2,3.6c-1.3,1.5-2.4,3.2-3.3,5.1c-1,1.9-1.8,3.8-2.4,5.8c-0.7,2-1.2,3.9-1.5,5.8c-0.3,1.9-0.5,3.6-0.5,5.1
		c0,1.5,0.1,3,0.4,4.6c0.2,1.6,0.7,3,1.4,4.3c0.7,1.3,1.6,2.4,2.8,3.2c1.2,0.8,2.7,1.2,4.6,1.2c1.8,0,3.5-0.5,5-1.5
		c1.5-1,2.8-2.2,4-3.7c1.2-1.5,2.2-3.1,3.1-4.8c0.9-1.7,1.6-3.3,2.2-4.8c0.5-1.3,1-2.5,1.4-3.5c0.4-1,0.6-2.2,0.6-3.6v-3.3
		c0-0.6,0.1-1.2,0.2-1.7c0.1-0.6,0.3-1.1,0.6-1.6c0.3-0.5,0.7-0.9,1.1-1.2c0.5-0.3,1-0.5,1.6-0.5c0.7,0,1.3,0.1,1.7,0.4
		s0.7,0.7,0.9,1.1c0.2,0.5,0.3,1,0.4,1.5c0,0.5,0.1,1.1,0.1,1.6c0,1-0.1,2-0.2,3c-0.1,1-0.3,2-0.5,3c-0.1,0.3-0.2,0.6-0.3,0.9
		c-0.1,0.3-0.1,0.6-0.1,1c0,1.8,0.2,3.4,0.7,4.7c0.5,1.3,1.1,2.5,1.9,3.5c0.8,1,1.8,1.9,3,2.6c1.2,0.7,2.6,1.5,4,2.2l1.1,2
		C258.8,139.7,258.6,140,258.2,140z"/>
	<path class="st0" d="M303.7,126.3c-1,2.4-2.3,4.5-4,6.2c-1.7,1.7-3.8,3.1-6.2,4c-2.4,0.9-5.1,1.4-8,1.4c-0.5,0-1.1,0-1.8-0.1
		c-0.7-0.1-1.4-0.3-2-0.5c-0.6-0.2-1.2-0.6-1.7-1c-0.5-0.4-0.7-1-0.8-1.7c0.1-0.2,0.3-0.4,0.6-0.4c0.2,0,0.5,0,0.6,0
		c0.9,0,1.7,0,2.5,0.1c0.8,0.1,1.6,0.1,2.4,0.1c2.2,0,4.3-0.4,6.1-1.1c1.9-0.7,3.4-1.8,4.7-3.1c1.3-1.3,2.3-2.9,3.1-4.7
		c0.7-1.9,1.1-3.9,1.1-6.1c0-4.3-1.1-7.6-3.2-9.9s-5.3-3.5-9.6-3.5c-2.2,0-4.2,0.4-6,1.2c-1.8,0.8-3.4,1.9-4.8,3.2
		c-1.5,1.3-2.8,2.8-3.9,4.5c-1.2,1.7-2.2,3.4-3.2,5.2c1.3,4,2.5,8.1,3.6,12.4c1.1,4.3,2.1,8.6,2.9,13c0.8,4.4,1.5,8.8,1.9,13.2
		c0.5,4.4,0.7,8.7,0.7,13c0,1.4-0.1,3-0.2,4.7c-0.1,1.7-0.3,3.4-0.7,5.2c-0.3,1.7-0.8,3.4-1.4,5c-0.6,1.6-1.4,3-2.4,4.3
		c-1,1.3-2.2,2.3-3.6,3c-1.4,0.7-3.1,1.1-5,1.1c-2,0-3.7-0.5-5.2-1.4c-1.5-1-2.7-2.2-3.8-3.7c-1-1.5-1.9-3.3-2.5-5.2
		c-0.6-1.9-1.1-3.9-1.5-6c-0.4-2-0.6-4-0.7-6c-0.1-1.9-0.2-3.6-0.2-5.1c0-4.2,0.3-8.5,0.8-12.9c0.5-4.4,1.3-8.8,2.4-13.2
		c1.1-4.4,2.4-8.6,4-12.8c1.6-4.1,3.4-8,5.6-11.5v-1.4c0-0.3-0.1-0.8-0.4-1.5c-0.3-0.7-0.5-1.5-0.9-2.4c-0.3-0.9-0.6-1.7-0.9-2.6
		c-0.3-0.9-0.4-1.5-0.4-2.1c0-0.4,0-0.8,0.1-1.2s0.3-0.7,0.7-0.9c0.4,0,0.8,0.4,1.2,1.1c0.5,0.7,0.9,1.5,1.3,2.4
		c0.4,0.9,0.8,1.7,1.1,2.6c0.3,0.8,0.5,1.4,0.6,1.8c1.3-1.8,2.7-3.4,4.1-4.9c1.4-1.5,2.9-2.8,4.6-3.9c1.6-1.1,3.4-1.9,5.3-2.6
		c1.9-0.6,4-0.9,6.3-0.9c2.6,0,5,0.4,7.2,1.2c2.2,0.8,4.1,2,5.6,3.5c1.6,1.5,2.8,3.3,3.7,5.5c0.9,2.1,1.3,4.6,1.3,7.3
		C305.1,121.1,304.6,123.8,303.7,126.3z M271.5,147c-1.3-7.3-2.8-14.6-4.5-21.8c-1.5,3.2-2.8,6.5-3.9,10.1
		c-1.1,3.5-2.1,7.1-2.8,10.8c-0.8,3.7-1.3,7.3-1.7,11c-0.4,3.7-0.6,7.3-0.6,10.8c0,0.8,0,1.9,0.1,3.2s0.2,2.8,0.4,4.3
		c0.2,1.5,0.5,3.1,0.8,4.7c0.3,1.6,0.8,3,1.4,4.3c0.6,1.3,1.3,2.3,2.1,3.1c0.8,0.8,1.8,1.2,2.9,1.2c1.3,0,2.4-0.4,3.2-1.1
		c0.9-0.7,1.6-1.7,2.2-2.9c0.6-1.2,1.1-2.5,1.4-3.9c0.3-1.5,0.6-2.9,0.7-4.3c0.1-1.5,0.2-2.8,0.3-4.1c0-1.3,0.1-2.4,0.1-3.2
		C273.4,161.7,272.8,154.3,271.5,147z"/>
	<path class="st0" d="M351.3,126.3c-1,2.4-2.3,4.5-4,6.2c-1.7,1.7-3.8,3.1-6.2,4c-2.4,0.9-5.1,1.4-8,1.4c-0.5,0-1.1,0-1.8-0.1
		c-0.7-0.1-1.4-0.3-2-0.5c-0.6-0.2-1.2-0.6-1.7-1c-0.5-0.4-0.7-1-0.8-1.7c0.1-0.2,0.3-0.4,0.6-0.4c0.2,0,0.5,0,0.6,0
		c0.9,0,1.7,0,2.5,0.1c0.8,0.1,1.6,0.1,2.4,0.1c2.2,0,4.3-0.4,6.1-1.1c1.9-0.7,3.4-1.8,4.7-3.1c1.3-1.3,2.3-2.9,3.1-4.7
		c0.7-1.9,1.1-3.9,1.1-6.1c0-4.3-1.1-7.6-3.2-9.9s-5.3-3.5-9.6-3.5c-2.2,0-4.2,0.4-6,1.2c-1.8,0.8-3.4,1.9-4.8,3.2
		c-1.5,1.3-2.8,2.8-3.9,4.5c-1.2,1.7-2.2,3.4-3.2,5.2c1.3,4,2.5,8.1,3.6,12.4c1.1,4.3,2.1,8.6,2.9,13c0.8,4.4,1.5,8.8,1.9,13.2
		c0.5,4.4,0.7,8.7,0.7,13c0,1.4-0.1,3-0.2,4.7c-0.1,1.7-0.3,3.4-0.7,5.2c-0.3,1.7-0.8,3.4-1.4,5c-0.6,1.6-1.4,3-2.4,4.3
		c-1,1.3-2.2,2.3-3.6,3c-1.4,0.7-3.1,1.1-5,1.1c-2,0-3.7-0.5-5.2-1.4c-1.5-1-2.7-2.2-3.8-3.7c-1-1.5-1.9-3.3-2.5-5.2
		c-0.6-1.9-1.1-3.9-1.5-6c-0.4-2-0.6-4-0.7-6c-0.1-1.9-0.2-3.6-0.2-5.1c0-4.2,0.3-8.5,0.8-12.9c0.5-4.4,1.3-8.8,2.4-13.2
		c1.1-4.4,2.4-8.6,4-12.8c1.6-4.1,3.4-8,5.6-11.5v-1.4c0-0.3-0.1-0.8-0.4-1.5c-0.3-0.7-0.5-1.5-0.9-2.4c-0.3-0.9-0.6-1.7-0.9-2.6
		c-0.3-0.9-0.4-1.5-0.4-2.1c0-0.4,0-0.8,0.1-1.2s0.3-0.7,0.7-0.9c0.4,0,0.8,0.4,1.2,1.1c0.5,0.7,0.9,1.5,1.3,2.4
		c0.4,0.9,0.8,1.7,1.1,2.6c0.3,0.8,0.5,1.4,0.6,1.8c1.3-1.8,2.7-3.4,4.1-4.9c1.4-1.5,2.9-2.8,4.6-3.9c1.6-1.1,3.4-1.9,5.3-2.6
		c1.9-0.6,4-0.9,6.3-0.9c2.6,0,5,0.4,7.2,1.2c2.2,0.8,4.1,2,5.6,3.5c1.6,1.5,2.8,3.3,3.7,5.5c0.9,2.1,1.3,4.6,1.3,7.3
		C352.7,121.1,352.2,123.8,351.3,126.3z M319.1,147c-1.3-7.3-2.8-14.6-4.5-21.8c-1.5,3.2-2.8,6.5-3.9,10.1
		c-1.1,3.5-2.1,7.1-2.8,10.8c-0.8,3.7-1.3,7.3-1.7,11c-0.4,3.7-0.6,7.3-0.6,10.8c0,0.8,0,1.9,0.1,3.2s0.2,2.8,0.4,4.3
		c0.2,1.5,0.5,3.1,0.8,4.7c0.3,1.6,0.8,3,1.4,4.3c0.6,1.3,1.3,2.3,2.1,3.1c0.8,0.8,1.8,1.2,2.9,1.2c1.3,0,2.4-0.4,3.2-1.1
		c0.9-0.7,1.6-1.7,2.2-2.9c0.6-1.2,1.1-2.5,1.4-3.9c0.3-1.5,0.6-2.9,0.7-4.3c0.1-1.5,0.2-2.8,0.3-4.1c0-1.3,0.1-2.4,0.1-3.2
		C321,161.7,320.4,154.3,319.1,147z"/>
	<path class="st0" d="M395.4,155.8c-0.4,3.8-1.1,7.8-2,12c-0.9,4.2-2.1,8.5-3.5,12.7c-1.4,4.2-3.1,8-5.2,11.4
		c-2,3.4-4.4,6.1-7.1,8.2c-2.7,2.1-5.7,3.2-9.1,3.2c-2,0-3.8-0.3-5.4-1c-1.6-0.7-2.9-1.6-4-2.7c-1.1-1.2-1.9-2.6-2.5-4.2
		c-0.6-1.6-0.9-3.5-0.9-5.5c0-3.4,0.7-7,2-10.8c1.4-3.8,3.1-7.4,5.2-11c2.1-3.6,4.5-7,7-10.2s5.1-5.9,7.5-8.2c0.9-0.9,2-1.8,3-2.6
		c1.1-0.8,2.3-1.2,3.7-1.2c0.1,0,0.2,0,0.3,0c0.1,0,0.2,0.1,0.4,0.2c0.1,0.2,0.1,0.4,0.1,0.7c0,0.2-0.1,0.4-0.3,0.7
		c-0.2,0.3-0.5,0.6-0.7,0.9c-0.3,0.3-0.6,0.6-0.9,0.9c-0.3,0.3-0.5,0.5-0.7,0.6c-1.5,1.5-3,3.1-4.7,5c-1.6,1.9-3.3,3.9-4.8,6
		c-1.6,2.1-3.1,4.4-4.6,6.7c-1.5,2.3-2.8,4.7-3.8,7.1c-1.1,2.4-2,4.7-2.6,7.1c-0.7,2.4-1,4.6-1,6.8c0,2.8,0.6,5,1.7,6.6
		c1.1,1.6,3.2,2.5,6.1,2.5c1.9,0,3.6-0.6,5.2-1.8c1.6-1.2,3.1-2.8,4.4-4.8c1.3-2,2.5-4.3,3.6-7c1.1-2.7,2-5.4,2.8-8.3
		c0.8-2.9,1.6-5.8,2.2-8.8c0.6-3,1.1-5.8,1.5-8.6c0.4-2.7,0.7-5.2,0.9-7.4c0.2-2.2,0.3-4.1,0.3-5.5c0-3.1-0.1-6.2-0.4-9.3
		c-0.2-3.1-0.6-6.2-1.1-9.3c-0.7,2.1-1.7,4.1-2.8,6c-1.2,1.8-2.5,3.4-4.1,4.8c-1.5,1.4-3.3,2.5-5.2,3.2c-1.9,0.8-4.1,1.2-6.4,1.2
		c-2.6,0-4.8-0.5-6.6-1.4c-1.8-0.9-3.3-2.2-4.3-3.8c-1.1-1.6-1.9-3.4-2.4-5.5c-0.5-2.1-0.7-4.3-0.7-6.6c0-0.5,0-1.4,0.1-2.5
		c0.1-1.2,0.2-2.4,0.4-3.8c0.2-1.4,0.4-2.9,0.7-4.3s0.6-2.9,1-4.1c0.4-1.2,0.9-2.2,1.4-3c0.5-0.8,1.2-1.2,1.9-1.2
		c0.5,0,0.8,0.3,0.8,0.8c0,1.3-0.2,2.6-0.6,3.8c-0.4,1.3-0.7,2.5-0.9,3.7c-0.6,3-0.9,6.1-0.9,9.1c0,1.6,0.1,3.3,0.4,4.9
		c0.2,1.7,0.7,3.2,1.4,4.5c0.7,1.4,1.6,2.5,2.9,3.3c1.3,0.9,2.9,1.3,4.9,1.3c2.2,0,4.1-0.4,5.8-1.3c1.7-0.9,3.1-2,4.3-3.4
		c1.2-1.4,2.2-3,3-4.9c0.8-1.9,1.4-3.8,1.9-5.8c0.5-2,0.8-4,1-6c0.2-2,0.3-3.8,0.3-5.6c0-0.9,0.3-1.7,0.9-2.3
		c0.6-0.6,1.3-0.9,2.2-0.9c0.8,0,1.4,0.2,1.9,0.7c0.4,0.5,0.8,1,1.1,1.7c0.3,0.7,0.5,1.5,0.7,2.2c0.2,0.8,0.4,1.5,0.5,2.2
		c1.2,5.3,2.1,10.6,2.7,15.9s0.9,10.7,0.9,16.2C396,148.9,395.8,152,395.4,155.8z"/>
</g>
<g>
	<path class="st1" d="M28,31.5l3.1-4.4c1.9,1.9,4.8,3.6,8.4,3.6c3.1,0,4.6-1.4,4.6-2.9c0-4.6-15.2-1.4-15.2-11.4
		c0-4.4,3.8-8.1,10-8.1c4.2,0,7.7,1.3,10.3,3.7l-3.1,4.2c-2.1-2-5-2.9-7.7-2.9c-2.4,0-3.7,1-3.7,2.6c0,4.2,15.2,1.4,15.2,11.2
		c0,4.8-3.5,8.5-10.6,8.5C34.1,35.7,30.5,34,28,31.5z"/>
	<path class="st1" d="M58.1,35.2V8.7h12.4c5.8,0,8.9,3.9,8.9,8.5c0,4.6-3.2,8.5-8.9,8.5h-6.7v9.4H58.1z M73.6,17.3
		c0-2.2-1.7-3.6-3.9-3.6h-6v7.1h6C71.9,20.8,73.6,19.5,73.6,17.3z"/>
	<path class="st1" d="M87.3,35.2V8.7h18.7v5H93v5.6h12.8v5H93v6h13.1v5H87.3z"/>
	<path class="st1" d="M113.6,22c0-8.2,6.2-13.7,14.1-13.7c5.8,0,9.2,3.1,11,6.5l-4.8,2.4c-1.1-2.1-3.5-3.9-6.2-3.9
		c-4.8,0-8.3,3.7-8.3,8.7s3.5,8.7,8.3,8.7c2.7,0,5.1-1.7,6.2-3.9l4.8,2.3c-1.9,3.3-5.2,6.5-11,6.5C119.8,35.7,113.6,30.1,113.6,22z"
		/>
	<path class="st1" d="M146.6,35.2V8.7h5.6v26.5H146.6z"/>
	<path class="st1" d="M180.3,35.2l-1.7-4.5h-11.4l-1.7,4.5h-6.4l10.2-26.5h7.1l10.2,26.5H180.3z M172.9,14.4l-4.1,11.4h8.3
		L172.9,14.4z"/>
	<path class="st1" d="M193.3,35.2V8.7h5.7v21.5h11.2v5H193.3z"/>
	<path class="st1" d="M218.4,35.2V8.7h5.6v26.5H218.4z"/>
	<path class="st1" d="M231.9,31.5l3.1-4.4c1.9,1.9,4.8,3.6,8.4,3.6c3.1,0,4.6-1.4,4.6-2.9c0-4.6-15.2-1.4-15.2-11.4
		c0-4.4,3.8-8.1,10-8.1c4.2,0,7.7,1.3,10.3,3.7l-3.1,4.2c-2.1-2-5-2.9-7.7-2.9c-2.4,0-3.7,1-3.7,2.6c0,4.2,15.2,1.4,15.2,11.2
		c0,4.8-3.5,8.5-10.6,8.5C238.1,35.7,234.4,34,231.9,31.5z"/>
	<path class="st1" d="M267.6,35.2V13.7h-7.7v-5H281v5h-7.7v21.5H267.6z"/>
	<path class="st1" d="M287,31.5l3.1-4.4c1.9,1.9,4.8,3.6,8.4,3.6c3.1,0,4.6-1.4,4.6-2.9c0-4.6-15.2-1.4-15.2-11.4
		c0-4.4,3.8-8.1,10-8.1c4.2,0,7.7,1.3,10.3,3.7l-3.1,4.2c-2.1-2-5-2.9-7.7-2.9c-2.4,0-3.7,1-3.7,2.6c0,4.2,15.2,1.4,15.2,11.2
		c0,4.8-3.5,8.5-10.6,8.5C293.1,35.7,289.5,34,287,31.5z"/>
	<path class="st1" d="M331.7,35.2V8.7h5.6v26.5H331.7z"/>
	<path class="st1" d="M365.3,35.2L352.7,18v17.3H347V8.7h5.8l12.3,16.6V8.7h5.6v26.5H365.3z"/>
</g>
<g>
	<path class="st1" d="M52.8,83.2V64.1l-7.5,19.1h-2.5l-7.5-19.1v19.1h-5.6V56.7h7.9l6.4,16.6l6.4-16.6h7.9v26.5H52.8z"/>
	<path class="st1" d="M86.5,83.2l-1.7-4.5H73.5l-1.7,4.5h-6.4l10.2-26.5h7.1l10.2,26.5H86.5z M79.1,62.4L75,73.8h8.3L79.1,62.4z"/>
	<path class="st1" d="M115.5,83.2l-8-10.6l-2.1,2.5v8.1h-5.6V56.7h5.6v11.8l9.4-11.8h6.9l-10.5,12.4l11.2,14.1H115.5z"/>
	<path class="st1" d="M129.5,83.2V56.7h5.6v26.5H129.5z"/>
	<path class="st1" d="M163.1,83.2l-12.6-17.3v17.3h-5.6V56.7h5.8l12.3,16.6V56.7h5.6v26.5H163.1z"/>
	<path class="st1" d="M176.9,70c0-8.4,6.4-13.7,14.1-13.7c5.5,0,8.9,2.8,10.9,5.9l-4.6,2.5c-1.2-1.9-3.5-3.5-6.3-3.5
		c-4.8,0-8.3,3.7-8.3,8.7s3.5,8.7,8.3,8.7c2.3,0,4.5-1,5.6-2v-3.2h-7v-4.9h12.6v10.2c-2.7,3-6.5,5-11.2,5
		C183.3,83.7,176.9,78.3,176.9,70z"/>
	<path class="st1" d="M225.9,83.2V56.7h12.4c5.8,0,8.9,3.9,8.9,8.5c0,4.6-3.2,8.5-8.9,8.5h-6.8v9.4H225.9z M241.4,65.3
		c0-2.2-1.7-3.6-3.9-3.6h-6v7.1h6C239.7,68.8,241.4,67.4,241.4,65.3z"/>
	<path class="st1" d="M255.1,83.2V56.7h18.7v5h-13.1v5.6h12.8v5h-12.8v6h13.1v5H255.1z"/>
	<path class="st1" d="M281.4,70c0-8,5.8-13.7,13.9-13.7c8,0,13.8,5.7,13.8,13.7s-5.8,13.7-13.8,13.7C287.3,83.7,281.4,78,281.4,70z
		 M303.3,70c0-5-3.1-8.7-8-8.7c-4.9,0-8.1,3.7-8.1,8.7c0,4.9,3.1,8.7,8.1,8.7C300.2,78.7,303.3,74.9,303.3,70z"/>
	<path class="st1" d="M317.5,83.2V56.7h12.4c5.8,0,8.9,3.9,8.9,8.5c0,4.6-3.2,8.5-8.9,8.5h-6.7v9.4H317.5z M333,65.3
		c0-2.2-1.7-3.6-3.9-3.6h-6v7.1h6C331.3,68.8,333,67.4,333,65.3z"/>
	<path class="st1" d="M346.5,83.2V56.7h5.7v21.5h11.2v5H346.5z"/>
	<path class="st1" d="M371.7,83.2V56.7h18.7v5h-13.1v5.6h12.8v5h-12.8v6h13.1v5H371.7z"/>
</g>
</svg>
