<?xml version="1.0" encoding="utf-8"?>
<!-- Generator: Adobe Illustrator 23.0.2, SVG Export Plug-In . SVG Version: 6.00 Build 0)  -->
<svg version="1.1" id="Camada_1" xmlns="http://www.w3.org/2000/svg" xmlns:xlink="http://www.w3.org/1999/xlink" x="0px" y="0px"
	 viewBox="0 0 380 210" style="enable-background:new 0 0 380 210;" xml:space="preserve">
<style type="text/css">
	.st0{enable-background:new    ;}
	.st1{fill:#E9527D;}
	.st2{fill:#FFFFFF;}
</style>
<title>Prancheta 1 cópia 15</title>
<g class="st0">
	<path class="st1" d="M213.4,124.8c-0.9,1-1.9,2-3.1,2.9c-1.2,0.9-2.4,1.8-3.6,2.5c-1.2,0.8-2.2,1.3-2.9,1.7c1.5,3.3,2.5,6.8,3,10.5
		c0.6,3.7,0.8,7.3,0.8,10.9c0,2.6-0.2,5.4-0.7,8.2c-0.5,2.8-1.4,5.5-2.6,7.8c-1.2,2.4-2.9,4.3-5.1,5.9c-2.1,1.6-4.9,2.3-8.2,2.3
		c-2.9,0-5.4-0.7-7.7-2c-2.3-1.3-4.3-3.1-6-5.3c-1.7-2.2-3.2-4.8-4.5-7.8c-1.3-3-2.4-6.2-3.2-9.5c-0.9-3.3-1.6-6.8-2.2-10.2
		c-0.6-3.5-1-6.9-1.3-10.1c-0.3-3.3-0.5-6.3-0.6-9.1c-0.1-2.8-0.2-5.2-0.2-7.3c0-1.8,0.1-4.2,0.2-7.2c0.1-3,0.3-6.2,0.7-9.8
		c0.3-3.6,0.8-7.3,1.3-11.3c0.5-4,1.2-7.9,2.1-11.7c0.8-3.9,1.9-7.5,3-11c1.2-3.5,2.6-6.6,4.1-9.2c1.6-2.7,3.4-4.8,5.4-6.4
		c2-1.6,4.3-2.4,6.9-2.4c2.3,0,4.2,0.5,5.8,1.6c1.6,1.1,2.9,2.4,4,4.1c1,1.6,1.8,3.5,2.2,5.5c0.5,2,0.7,4,0.7,5.9
		c0,4.1-0.5,8.2-1.6,12.4c-1.1,4.1-2.6,8.2-4.4,12.1c-1.8,3.9-4,7.7-6.3,11.3c-2.4,3.6-4.9,6.9-7.4,10c-0.4,0.5-0.9,1-1.5,1.7
		c-0.6,0.6-1.2,1.2-1.8,1.8c-0.7,0.6-1.3,1-2,1.4s-1.4,0.6-2,0.6c-0.4,0-0.6-0.1-0.6-0.4c0-0.3,0.1-0.7,0.4-1.1c0.3-0.5,0.6-1,1-1.4
		s0.7-1,1.1-1.4c0.4-0.4,0.6-0.8,0.8-1c2.4-2.9,4.8-6.1,7.2-9.7c2.4-3.5,4.5-7.2,6.3-11.1c1.9-3.9,3.4-7.8,4.5-11.9
		c1.1-4,1.7-8,1.7-12c0-1.2-0.1-2.6-0.3-4.1c-0.2-1.5-0.6-3-1.2-4.3c-0.6-1.3-1.3-2.4-2.4-3.3c-1-0.9-2.3-1.3-4-1.3
		c-1.8,0-3.5,0.7-5,2.2c-1.5,1.5-2.8,3.5-3.9,5.9c-1.2,2.5-2.2,5.3-3.1,8.6c-0.9,3.2-1.7,6.6-2.3,10.2c-0.6,3.5-1.2,7.1-1.6,10.7
		c-0.4,3.6-0.8,6.9-1,10.1c-0.2,3.2-0.4,6-0.5,8.5c-0.1,2.5-0.2,4.4-0.2,5.8c0,1.6,0,3.6,0.1,6.1c0.1,2.5,0.2,5.2,0.5,8.2
		c0.2,3,0.6,6.1,1,9.4s1,6.5,1.7,9.7c0.7,3.2,1.5,6.2,2.5,9.1c1,2.9,2.1,5.4,3.5,7.6c1.3,2.2,2.9,3.9,4.7,5.2c1.8,1.3,3.8,1.9,6,1.9
		c2.3,0,4.1-0.7,5.5-2s2.5-3,3.2-4.9c0.8-2,1.3-4,1.5-6.2c0.3-2.2,0.4-4.2,0.4-5.9c0-3.1-0.2-6.2-0.7-9.5c-0.4-3.3-1.3-6.3-2.5-9.1
		c-2.7,0.8-5.4,1.2-8.3,1.2c-1.3,0-2.7-0.1-4.3-0.4c-1.6-0.3-3.1-0.7-4.5-1.3s-2.6-1.5-3.6-2.6c-1-1.1-1.4-2.4-1.4-4.1
		c0-1.4,0.3-2.6,0.9-3.6c0.6-1,1.4-1.8,2.3-2.5c1-0.7,2-1.2,3.2-1.5c1.2-0.4,2.4-0.5,3.5-0.5c1.8,0,3.4,0.3,4.9,0.8
		c1.5,0.6,2.8,1.3,4.1,2.2c1.2,0.9,2.4,2,3.5,3.2c1.1,1.2,2.1,2.5,3.1,3.9c0.8-0.3,1.7-0.9,2.9-1.7c1.2-0.8,2.3-1.6,3.5-2.4
		c1.2-0.8,2.3-1.5,3.4-2.2c1.1-0.6,1.9-0.9,2.5-0.9h0.3l0.1,0.3C214.8,122.8,214.3,123.7,213.4,124.8z M192.6,125.5
		c-1.8-1.4-3.9-2.1-6.2-2.1c-0.5,0-1,0.1-1.6,0.2c-0.6,0.1-1.2,0.3-1.8,0.6c-0.6,0.3-1,0.6-1.4,1.1s-0.6,1-0.6,1.6
		c0,0.8,0.4,1.5,1.3,2c0.9,0.5,1.9,1,3.1,1.3c1.2,0.3,2.3,0.5,3.5,0.7c1.2,0.1,2.1,0.2,2.7,0.2c0.9,0,1.9-0.1,2.7-0.2
		c0.9-0.1,1.8-0.2,2.7-0.4C195.9,128.6,194.4,126.9,192.6,125.5z"/>
	<path class="st1" d="M261.7,124.8c-0.1,0.4-0.3,0.7-0.5,1.1c-0.8,2.9-1.9,5.6-3.2,7.9c-1.3,2.4-2.8,4.4-4.7,6.1
		c-1.8,1.7-4,3-6.5,3.8c-2.5,0.9-5.3,1.3-8.5,1.3c-3.6,0-6.8-0.6-9.7-1.7c-2.9-1.1-5.4-2.7-7.4-4.8c-2-2.1-3.6-4.6-4.7-7.5
		c-1.1-2.9-1.7-6.1-1.7-9.7c0-2.5,0.4-5.1,1.1-7.8c0.7-2.7,1.8-5.2,3.2-7.5c1.4-2.3,3.2-4.2,5.4-5.6s4.7-2.2,7.6-2.2
		c2.1,0,4,0.3,5.8,1c1.7,0.7,3.2,1.6,4.5,2.8c1.3,1.2,2.3,2.7,3,4.4c0.7,1.7,1.1,3.6,1.1,5.7c0,2.3-0.4,4.5-1.1,6.6
		c-0.7,2.1-1.7,4.1-3,6c-1.2,1.9-2.7,3.6-4.3,5.1c-1.6,1.6-3.4,2.9-5.2,4.1c-0.7,0.5-1.5,1-2.3,1.5c-0.8,0.5-1.7,0.8-2.5,1.1
		c1.7,1.2,3.5,2,5.5,2.4c2,0.4,3.9,0.6,6,0.6c4.5,0,8.3-1.1,11.2-3.4s5.2-5.5,6.8-9.7c0.1-0.2,0.2-0.5,0.3-0.9
		c0.1-0.4,0.2-0.7,0.3-1.1c0.1-0.4,0.3-0.7,0.4-1.1s0.3-0.6,0.5-0.7c0.1-0.1,0.4-0.4,0.9-0.6s0.9-0.4,1.1-0.4c0.2,0,0.4,0.1,0.6,0.3
		c0,0.3,0,0.6,0.1,0.9c0,0.3,0.1,0.6,0.1,0.8C261.9,124,261.8,124.4,261.7,124.8z M239.1,106.2c-1.5-1.5-3.8-2.2-6.8-2.2
		c-1.9,0-3.6,0.6-5,1.9c-1.4,1.2-2.5,2.8-3.5,4.6c-0.9,1.8-1.6,3.7-2,5.8c-0.4,2-0.7,3.8-0.7,5.3c0,4.8,1.5,9.2,4.5,12.9
		c0.2-0.2,0.5-0.4,0.7-0.6c0.3-0.2,0.5-0.4,0.8-0.6c1.8-1.1,3.5-2.3,5.2-3.7c1.7-1.4,3.2-2.9,4.5-4.6c1.3-1.7,2.4-3.5,3.2-5.5
		c0.8-2,1.2-4.1,1.2-6.3C241.3,110,240.6,107.7,239.1,106.2z"/>
	<path class="st1" d="M295.3,124.5c-0.1,0.4-0.3,0.9-0.6,1.4c-0.7,2-1.5,4-2.6,5.8c-1.1,1.9-2.4,3.5-3.8,5c-1.5,1.5-3.2,2.6-5.1,3.5
		s-4,1.3-6.4,1.3c-3.5,0-6.5-0.9-9.2-2.8c-2.6-1.9-4.9-4.3-6.8-7.4c-1.9-3-3.5-6.5-4.8-10.3s-2.3-7.7-3.1-11.7
		c-0.8-3.9-1.3-7.7-1.6-11.3c-0.3-3.6-0.5-6.8-0.5-9.4c0-1.9,0.1-4.3,0.2-7.1c0.2-2.8,0.5-5.7,1-8.7c0.5-3,1.2-6.1,2-9.1
		s2-5.8,3.4-8.2s3.1-4.4,5-5.9c2-1.5,4.3-2.3,7-2.3c2.9,0,5.3,0.7,7.2,2.1c1.9,1.4,3.4,3.2,4.5,5.3c1.1,2.2,1.9,4.5,2.3,7.1
		c0.4,2.6,0.7,5,0.7,7.4c0,4.5-0.4,9-1.3,13.4c-0.9,4.4-2,8.8-3.4,13.1c-0.3,1.1-0.8,2.6-1.5,4.4c-0.7,1.8-1.4,3.6-2.2,5.5
		c-0.8,1.9-1.6,3.6-2.5,5.3c-0.8,1.6-1.6,2.9-2.3,3.7c-0.4,0.4-0.8,0.7-1.2,1c-0.4,0.3-1,0.5-1.5,0.5l-0.3-0.1l-0.6-0.6
		c0.1-0.6,0.3-1.1,0.6-1.6c0.2-0.5,0.5-1,0.8-1.6c1.4-3,2.6-5.9,3.8-8.9c1.2-3,2.2-6,3.1-9.1c0.9-3.8,1.7-7.7,2.3-11.5
		c0.6-3.9,0.9-7.8,0.9-11.7c0-1.6-0.1-3.4-0.3-5.4c-0.2-2-0.6-3.9-1.2-5.7c-0.6-1.8-1.6-3.3-2.8-4.5c-1.2-1.2-2.9-1.8-5-1.8
		c-1.8,0-3.3,0.7-4.7,2.2c-1.3,1.4-2.4,3.3-3.4,5.5s-1.7,4.8-2.2,7.6c-0.6,2.8-1,5.5-1.3,8.2c-0.3,2.7-0.6,5.2-0.7,7.4
		c-0.1,2.3-0.2,4-0.2,5.3c0,1.5,0.1,3.3,0.2,5.4c0.1,2.1,0.3,4.5,0.6,7c0.3,2.5,0.7,5.1,1.2,7.8s1.1,5.4,1.8,7.9
		c0.7,2.6,1.6,5,2.6,7.4s2.1,4.4,3.4,6.1c1.3,1.8,2.8,3.2,4.4,4.2c1.6,1,3.5,1.6,5.5,1.6c1.7,0,3.3-0.3,4.8-0.8s2.8-1.3,4-2.3
		c1.2-0.9,2.3-2.1,3.2-3.4c0.9-1.3,1.8-2.7,2.5-4.2c0.1-0.4,0.3-0.9,0.6-1.5s0.5-1,0.8-1.4c0.1-0.2,0.5-0.5,1.1-0.8
		c0.6-0.3,1-0.5,1.2-0.5c0.1,0,0.2,0,0.3,0.1c0.1,0.1,0.2,0.2,0.3,0.3v0.4C295.5,123.6,295.5,124.1,295.3,124.5z"/>
	<path class="st1" d="M307.9,91.2c-0.1,0.3-0.2,0.5-0.4,0.8l-0.6,0.4h-0.7c-0.2,0-0.4,0-0.6,0c-0.2,0-0.4,0-0.6-0.1
		c-0.1-0.1-0.3-0.3-0.4-0.7c-0.1-0.4-0.3-0.8-0.6-1.2c-0.3-0.4-0.7-0.8-1.2-1.1c-0.5-0.3-1.2-0.5-2.1-0.5c-0.8,0-1.5,0.3-2.2,0.8
		s-1,1.2-1,2c0,0.9,0.4,1.6,1.1,2.1c0.8,0.5,1.5,0.8,2.3,0.8c0.8,0,1.4-0.1,1.8-0.4c0.5-0.3,0.9-0.6,1.3-1c0.1-0.3,0.3-0.5,0.6-0.6
		c0.3-0.1,0.5-0.1,0.8-0.1c0.4,0,0.8,0,1.3,0.1c0.5,0.1,0.8,0.4,0.8,1c0,0.9-0.3,1.7-0.8,2.5c-0.5,0.8-1.2,1.4-2,1.9
		c-0.8,0.5-1.7,0.9-2.6,1.2c-0.9,0.3-1.8,0.5-2.6,0.5c-1.2,0-2.3-0.2-3.3-0.6c-1-0.4-1.9-1-2.6-1.8c-0.8-0.8-1.4-1.6-1.8-2.6
		c-0.4-1-0.7-2.1-0.7-3.2c0-1.2,0.2-2.3,0.7-3.3c0.5-1,1.1-1.9,1.9-2.6c0.8-0.7,1.7-1.3,2.8-1.7c1-0.4,2.1-0.6,3.3-0.6
		c1,0,2,0.2,3,0.6c1,0.4,1.9,0.9,2.6,1.6c0.8,0.7,1.4,1.5,1.8,2.4c0.5,0.9,0.7,1.8,0.7,2.8C308,90.6,307.9,90.9,307.9,91.2z
		 M324.4,136.6c-0.2,0.4-0.4,0.8-0.7,1c-1.6,2.4-3.6,4.2-6.1,5.4c-2.5,1.2-5.2,1.8-8.1,1.8c-2.5,0-4.9-0.4-7-1.3
		c-2.1-0.9-3.9-2.1-5.4-3.6c-1.5-1.6-2.6-3.4-3.4-5.5c-0.8-2.1-1.2-4.5-1.2-7c0-0.8,0.1-1.7,0.2-2.9c0.1-1.2,0.3-2.4,0.5-3.7
		s0.5-2.5,0.8-3.6c0.3-1.1,0.6-2,1-2.6c0.4-0.2,0.7-0.3,1.1-0.3c0.4,0,0.9,0.1,1.4,0.2c0.5,0.1,0.7,0.5,0.7,1.1
		c0,1.2-0.1,2.3-0.2,3.4c-0.1,1.1-0.2,2.2-0.2,3.4c0,2.3,0.2,4.5,0.6,6.5c0.4,2,1.1,3.8,2.2,5.3c1,1.5,2.4,2.7,4.1,3.6
		c1.7,0.9,3.9,1.3,6.5,1.3c1.6,0,3-0.2,4.3-0.7c1.3-0.5,2.5-1,3.5-1.6c1-0.6,1.8-1.1,2.4-1.6c0.6-0.5,1-0.7,1.1-0.7
		c0.3,0,0.8,0.1,1.3,0.4c0.6,0.2,0.8,0.5,0.8,0.8C324.7,135.8,324.6,136.2,324.4,136.6z"/>
	<path class="st1" d="M343.3,114.4c-1.2,2-2.6,4-4.4,5.9c-1.7,1.9-3.6,3.6-5.5,5.2c-1.9,1.6-3.6,2.9-5.1,4c2.9,2.1,5.3,4.8,7.3,8.2
		c1.9,3.3,3.5,6.9,4.6,10.7c1.2,3.8,2,7.7,2.4,11.7c0.5,4,0.7,7.7,0.7,11c0,2.1-0.1,4.3-0.4,6.6s-0.7,4.7-1.3,7
		c-0.6,2.3-1.4,4.6-2.4,6.7c-1,2.2-2.2,4.1-3.7,5.8c-1.5,1.7-3.2,3-5.2,4c-2,1-4.3,1.5-7,1.5c-2.4,0-4.4-0.5-6-1.4
		c-1.6-1-2.8-2.2-3.8-3.7c-1-1.5-1.6-3.3-2-5.2c-0.4-2-0.6-3.9-0.6-5.9c0-1.8,0.1-3.7,0.4-5.7c0.3-2,0.6-3.9,1.1-5.9
		c0.4-2,1-3.9,1.6-5.8c0.6-1.9,1.2-3.7,1.9-5.4c0.4-1,0.9-2.3,1.7-3.9c0.7-1.6,1.5-3.2,2.4-4.8c0.8-1.6,1.7-3.1,2.6-4.5
		s1.8-2.4,2.6-3.1c0.3-0.3,0.7-0.6,1.2-0.8c0.5-0.3,1-0.4,1.5-0.4c0.1,0,0.3,0.1,0.5,0.2c0.2,0.1,0.2,0.3,0.2,0.6
		c0,0.4-0.2,0.9-0.6,1.6s-0.7,1.2-0.9,1.6c-1.6,2.4-3,4.9-4.3,7.5c-1.3,2.6-2.4,5.3-3.3,8.1c-1,3-1.9,6.1-2.5,9.5
		c-0.6,3.4-1,6.6-1,9.8c0,1.1,0.1,2.4,0.2,3.8c0.1,1.4,0.5,2.7,1,4s1.2,2.3,2.1,3.1c0.9,0.8,2.1,1.3,3.5,1.3c2,0,3.8-0.4,5.3-1.3
		c1.5-0.9,2.8-2,3.8-3.4c1-1.4,1.9-3,2.5-4.8c0.6-1.8,1.1-3.7,1.5-5.6c0.4-1.9,0.6-3.8,0.7-5.7c0.1-1.9,0.2-3.6,0.2-5.1
		c0-2.6-0.1-5.4-0.4-8.3c-0.3-2.9-0.7-5.9-1.3-8.8c-0.6-2.9-1.5-5.7-2.5-8.3c-1-2.7-2.3-5-3.8-7.2c-0.9-1.2-2-2.4-3.2-3.6
		c-1.2-1.2-2.5-2.1-3.8-2.6c-0.7-0.4-1.3-0.8-1.7-1.2c-0.4-0.4-0.6-1.1-0.6-1.9c0-0.4,0.1-0.8,0.4-1.2s0.6-0.7,1-1
		c1.5-1,3.3-2.2,5.4-3.6c2.1-1.4,4.2-3,6.2-4.7c2-1.7,3.7-3.5,5.2-5.4c1.4-1.9,2.2-3.8,2.2-5.8c0-1-0.2-1.8-0.6-2.5
		c-0.4-0.7-0.9-1.3-1.6-1.7c-0.6-0.4-1.4-0.7-2.2-1c-0.8-0.2-1.7-0.3-2.5-0.3c-1.2,0-2.5,0.2-3.9,0.5c-1.4,0.3-2.9,0.8-4.3,1.3
		c-1.5,0.5-2.9,1.1-4.2,1.8c-1.4,0.6-2.5,1.2-3.5,1.8c-0.6,0.4-1.2,0.7-1.7,1c-0.5,0.3-1.1,0.6-1.6,0.8c-0.3,0.1-0.8,0.1-1.4,0
		s-1.1-0.3-1.3-0.5l0.1-0.6c0.3-0.5,0.6-0.9,1.1-1.3c0.4-0.3,0.9-0.6,1.4-0.9c1.5-1,3-2,4.6-3c1.6-1,3.3-1.9,5-2.6s3.4-1.4,5.2-1.9
		c1.8-0.5,3.6-0.7,5.5-0.7c1.5,0,2.9,0.3,4.3,0.8c1.4,0.5,2.6,1.2,3.6,2.2c1,0.9,1.8,2,2.4,3.3c0.6,1.3,0.9,2.7,0.9,4.3
		C345.1,110.4,344.5,112.4,343.3,114.4z"/>
</g>
<rect x="6.9" y="23.8" class="st1" width="271.5" height="27.2"/>
<rect x="6.9" y="72.5" class="st1" width="164.7" height="27.2"/>
<g class="st0">
	<path class="st2" d="M33.3,80.2H45v4.2H28.8V57.2h15.8v4.2H33.3v7.1h10.3v4.1H33.3V80.2z"/>
	<path class="st2" d="M87.3,84.4h-4.5l-3.1-19.7L70.8,84h-1.1l-8.8-19.2l-3.2,19.6h-4.5l4.4-27.1h4.4l8.3,18.5l8.3-18.5H83
		L87.3,84.4z"/>
	<path class="st2" d="M122.8,70.6h14.5c0,2.7-0.6,5.2-1.8,7.4c-1.2,2.2-2.8,3.9-4.8,5.1c-2.1,1.2-4.4,1.8-7,1.8
		c-2,0-3.8-0.4-5.5-1.1s-3.2-1.7-4.4-2.9c-1.2-1.2-2.2-2.7-2.9-4.5c-0.7-1.7-1.1-3.6-1.1-5.6s0.3-3.9,1-5.6s1.6-3.2,2.9-4.5
		c1.2-1.2,2.7-2.2,4.4-2.9c1.7-0.7,3.5-1.1,5.5-1.1c3.3,0,6.2,0.9,8.7,2.8c2.5,1.9,4.1,4.3,4.7,7.2h-4.6c-0.6-1.7-1.7-3.1-3.2-4.2
		s-3.4-1.6-5.4-1.6c-2.8,0-5,0.9-6.7,2.7c-1.7,1.8-2.6,4.2-2.6,7c0,2.9,0.9,5.2,2.6,7c1.7,1.8,4,2.7,6.8,2.7c2.2,0,4.1-0.6,5.7-1.7
		c1.6-1.1,2.7-2.6,3.2-4.4h-9.7V70.6z"/>
	<path class="st2" d="M151.5,80.2h11.7v4.2H147V57.2h15.8v4.2h-11.3v7.1h10.3v4.1h-10.3V80.2z"/>
	<path class="st2" d="M191,57.2h4.4v27.1h-3.7L177.6,65v19.4h-4.4V57.2h4L191,76.3V57.2z"/>
	<path class="st2" d="M224.7,57.2l0,4.2h-8v23h-4.4v-23h-7.9v-4.2H224.7z"/>
	<path class="st2" d="M238.1,80.2h11.7v4.2h-16.2V57.2h15.8v4.2h-11.3v7.1h10.3v4.1h-10.3V80.2z"/>
</g>
<g class="st0">
	<path class="st2" d="M33.3,30.5H45v4.2H28.8V7.6h15.8v4.2H33.3v7.1h10.3v4.1H33.3V30.5z"/>
	<path class="st2" d="M63.5,35.1c-3.1,0-5.6-0.8-7.4-2.4c-1.9-1.6-2.8-3.8-2.8-6.5h4.5c0,1.5,0.5,2.6,1.6,3.4
		c1.1,0.8,2.4,1.2,4.1,1.2c1.5,0,2.8-0.4,3.8-1.1s1.6-1.7,1.6-2.9c0-0.3,0-0.5-0.1-0.7s-0.1-0.5-0.3-0.7c-0.1-0.2-0.2-0.4-0.4-0.5
		c-0.1-0.2-0.3-0.3-0.5-0.5c-0.2-0.2-0.4-0.3-0.6-0.4s-0.4-0.2-0.7-0.3c-0.3-0.1-0.6-0.2-0.8-0.3c-0.2-0.1-0.5-0.2-0.9-0.3
		s-0.7-0.2-0.9-0.2c-0.2,0-0.5-0.1-1-0.2c-2.3-0.6-4-1.1-5-1.6C55.3,20,54,18.3,53.8,16c-0.1-0.4-0.1-0.7-0.1-1.1
		c0-2.4,0.9-4.3,2.6-5.7c1.7-1.4,4-2.1,6.9-2.1c2.9,0,5.2,0.7,6.9,2.2c1.7,1.5,2.5,3.5,2.5,6.1h-4.4c0-1.3-0.5-2.3-1.4-3.1
		s-2.2-1.1-3.6-1.1c-1.4,0-2.6,0.3-3.5,0.9c-0.9,0.6-1.4,1.5-1.4,2.5c0,0.4,0.1,0.8,0.2,1.1c0.1,0.3,0.4,0.6,0.7,0.9
		c0.3,0.3,0.6,0.5,0.9,0.7c0.3,0.2,0.7,0.4,1.3,0.5s1,0.3,1.4,0.4c0.4,0.1,0.9,0.2,1.6,0.4c2.3,0.6,4,1.1,5.1,1.6
		c2.4,1.1,3.7,2.9,4.1,5.2c0.1,0.4,0.1,0.9,0.1,1.3c0,1.8-0.4,3.3-1.3,4.5s-2.1,2.2-3.5,2.8C67,34.8,65.3,35.1,63.5,35.1z"/>
	<path class="st2" d="M93.2,7.6c2.6,0,4.8,0.9,6.6,2.6c1.8,1.7,2.6,3.8,2.6,6.4c0,2.6-0.9,4.7-2.6,6.4c-1.8,1.7-4,2.6-6.6,2.6h-5.6
		v9.2h-4.5V7.6H93.2z M93,21.3c1.4,0,2.6-0.4,3.5-1.3c0.9-0.9,1.4-2,1.4-3.4c0-1.4-0.5-2.5-1.4-3.4c-0.9-0.9-2.1-1.3-3.5-1.3h-5.4
		v9.5H93z"/>
</g>
<g class="st0">
	<path class="st2" d="M116.9,30.5h11.7v4.2h-16.2V7.6h15.8v4.2h-11.3v7.1h10.3v4.1h-10.3V30.5z"/>
</g>
<g class="st0">
	<path class="st2" d="M150.6,35.2c-2,0-3.8-0.4-5.6-1.1c-1.7-0.7-3.2-1.7-4.4-2.9c-1.2-1.2-2.2-2.7-2.9-4.5
		c-0.7-1.7-1.1-3.6-1.1-5.6s0.4-3.9,1.1-5.6c0.7-1.7,1.7-3.2,2.9-4.5c1.2-1.2,2.7-2.2,4.4-2.9c1.7-0.7,3.6-1.1,5.6-1.1
		c3.2,0,6,0.9,8.4,2.8c2.4,1.8,3.9,4.3,4.6,7.3H159c-0.6-1.8-1.7-3.2-3.2-4.2c-1.5-1-3.3-1.5-5.3-1.5c-2.7,0-5,0.9-6.8,2.8
		s-2.7,4.2-2.7,7s0.9,5.2,2.7,7c1.8,1.8,4,2.7,6.8,2.7c2.1,0,3.9-0.5,5.4-1.6s2.6-2.6,3.2-4.5h4.5c-0.7,3.2-2.2,5.7-4.6,7.6
		C156.7,34.2,153.8,35.2,150.6,35.2z"/>
	<path class="st2" d="M173,34.7V7.6h4.5v27.1H173z"/>
	<path class="st2" d="M207.5,34.7l-2.3-5.9h-12.1l-2.3,5.9h-4.7L197,7.6h4.2l11.2,27.1H207.5z M199.1,13.4l-4.5,11.4h9L199.1,13.4z"
		/>
	<path class="st2" d="M225.5,30.5h11.3v4.1H221V7.6h4.5V30.5z"/>
	<path class="st2" d="M245.6,34.7V7.6h4.5v27.1H245.6z"/>
</g>
<g class="st0">
	<path class="st2" d="M272.2,35.1c-3.1,0-5.6-0.8-7.4-2.4c-1.9-1.6-2.8-3.8-2.8-6.5h4.5c0,1.5,0.5,2.6,1.6,3.4s2.4,1.2,4.1,1.2
		c1.5,0,2.8-0.4,3.8-1.1c1-0.7,1.6-1.7,1.6-2.9c0-0.3,0-0.5-0.1-0.7s-0.1-0.5-0.3-0.7c-0.1-0.2-0.2-0.4-0.4-0.5s-0.3-0.3-0.5-0.5
		c-0.2-0.2-0.4-0.3-0.6-0.4s-0.4-0.2-0.7-0.3c-0.3-0.1-0.6-0.2-0.8-0.3s-0.5-0.2-0.9-0.3s-0.7-0.2-0.9-0.2c-0.2,0-0.5-0.1-1-0.2
		c-2.3-0.6-4-1.1-5-1.6c-2.3-1.1-3.6-2.8-3.9-5.1c-0.1-0.4-0.1-0.7-0.1-1.1c0-2.4,0.9-4.3,2.6-5.7c1.7-1.4,4-2.1,6.9-2.1
		c2.9,0,5.2,0.7,6.9,2.2c1.7,1.5,2.5,3.5,2.5,6.1h-4.4c0-1.3-0.5-2.3-1.4-3.1s-2.2-1.1-3.6-1.1c-1.4,0-2.6,0.3-3.5,0.9
		c-0.9,0.6-1.4,1.5-1.4,2.5c0,0.4,0.1,0.8,0.2,1.1c0.1,0.3,0.4,0.6,0.7,0.9s0.6,0.5,0.9,0.7c0.3,0.2,0.7,0.4,1.3,0.5s1,0.3,1.4,0.4
		c0.4,0.1,0.9,0.2,1.6,0.4c2.3,0.6,4,1.1,5.1,1.6c2.4,1.1,3.7,2.9,4,5.2c0.1,0.4,0.1,0.9,0.1,1.3c0,1.8-0.4,3.3-1.3,4.5
		s-2.1,2.2-3.5,2.8C275.7,34.8,274,35.1,272.2,35.1z"/>
</g>
<g class="st0">
	<path class="st2" d="M309.5,7.6l0,4.2h-8v23h-4.4v-23h-7.9V7.6H309.5z"/>
</g>
<g class="st0">
	<path class="st2" d="M335,34.7l-2.3-5.9h-12.1l-2.3,5.9h-4.7l10.9-27.1h4.2l11.2,27.1H335z M326.6,13.4l-4.5,11.4h9L326.6,13.4z"/>
</g>
<g class="st0">
	<path class="st2" d="M356.4,35.1c-3.1,0-5.6-0.8-7.4-2.4c-1.9-1.6-2.8-3.8-2.8-6.5h4.5c0,1.5,0.5,2.6,1.6,3.4
		c1.1,0.8,2.4,1.2,4.1,1.2c1.5,0,2.8-0.4,3.8-1.1c1-0.7,1.6-1.7,1.6-2.9c0-0.3,0-0.5-0.1-0.7c-0.1-0.2-0.1-0.5-0.3-0.7
		c-0.1-0.2-0.2-0.4-0.4-0.5c-0.1-0.2-0.3-0.3-0.5-0.5s-0.4-0.3-0.6-0.4c-0.2-0.1-0.4-0.2-0.7-0.3c-0.3-0.1-0.6-0.2-0.8-0.3
		c-0.2-0.1-0.5-0.2-0.9-0.3s-0.7-0.2-0.9-0.2c-0.2,0-0.5-0.1-1-0.2c-2.3-0.6-4-1.1-5-1.6c-2.3-1.1-3.6-2.8-3.9-5.1
		c-0.1-0.4-0.1-0.7-0.1-1.1c0-2.4,0.9-4.3,2.6-5.7c1.7-1.4,4-2.1,6.9-2.1c2.9,0,5.2,0.7,6.9,2.2c1.7,1.5,2.5,3.5,2.5,6.1h-4.4
		c0-1.3-0.5-2.3-1.4-3.1c-1-0.7-2.2-1.1-3.6-1.1c-1.4,0-2.6,0.3-3.5,0.9c-0.9,0.6-1.4,1.5-1.4,2.5c0,0.4,0.1,0.8,0.2,1.1
		c0.1,0.3,0.4,0.6,0.7,0.9c0.3,0.3,0.6,0.5,0.9,0.7c0.3,0.2,0.7,0.4,1.3,0.5s1,0.3,1.4,0.4c0.4,0.1,0.9,0.2,1.6,0.4
		c2.3,0.6,4,1.1,5.1,1.6c2.4,1.1,3.7,2.9,4,5.2c0.1,0.4,0.1,0.9,0.1,1.3c0,1.8-0.4,3.3-1.3,4.5s-2.1,2.2-3.5,2.8
		S358.2,35.1,356.4,35.1z"/>
</g>
</svg>
